<?xml version="1.0" standalone="no"?><!DOCTYPE svg PUBLIC "-//W3C//DTD SVG 1.1//EN" "http://www.w3.org/Graphics/SVG/1.1/DTD/svg11.dtd"><svg t="1544681429221" class="icon" style="" viewBox="0 0 1024 1024" version="1.1" xmlns="http://www.w3.org/2000/svg" p-id="14638" xmlns:xlink="http://www.w3.org/1999/xlink" width="200" height="200"><defs><style type="text/css"></style></defs><path d="M1024.039497 587.556883V437.248419a26.989695 26.989695 0 0 0-27.282266-27.282266h-83.675369a26.623981 26.623981 0 0 1-25.599982-18.797701 447.633966 447.633966 0 0 0-23.844554-58.953101 27.428552 27.428552 0 0 1 5.119996-31.597691l59.684529-59.757672a27.867409 27.867409 0 0 0 0-38.473115L822.677355 96.549234a27.794266 27.794266 0 0 0-38.399972 0l-59.757672 59.830814a27.355409 27.355409 0 0 1-31.597692 5.119997 354.303747 354.303747 0 0 0-58.879958-23.917698 27.428552 27.428552 0 0 1-18.724558-25.599981V27.35614A28.233123 28.233123 0 0 0 587.157523 0.000731H436.922202A26.989695 26.989695 0 0 0 409.639936 27.35614v83.675369a26.623981 26.623981 0 0 1-18.797701 25.599982 446.902538 446.902538 0 0 0-58.879958 23.917697 27.355409 27.355409 0 0 1-31.524549-5.119996l-59.757671-59.757672a27.794266 27.794266 0 0 0-38.399973 0L97.320159 203.264586a27.867409 27.867409 0 0 0 0 38.399973l59.757672 59.830814c8.484565 8.557708 10.239993 21.357699 5.119996 31.597692a354.962032 354.962032 0 0 0-23.917697 58.879958 27.428552 27.428552 0 0 1-25.599982 18.797701H27.322495A25.746267 25.746267 0 0 0 0.040229 437.248419v150.308464c0 15.359989 11.922277 27.355409 27.282266 27.355409h83.675369c11.922277 0 22.16227 7.679995 25.599981 18.797701 6.802281 20.479985 14.482275 40.1554 23.844555 58.953101 5.119996 10.239993 3.437712 23.039984-5.119997 31.597692l-59.684528 59.757671a27.867409 27.867409 0 0 0 0 38.399973l105.764495 105.910781c10.239993 10.239993 28.15998 10.239993 38.399973 0l59.757672-59.757671a27.355409 27.355409 0 0 1 31.597691-5.119997c18.724558 9.362279 38.399973 17.919987 58.879958 23.917697a27.428552 27.428552 0 0 1 18.724558 25.599982v83.675369c0 15.359989 11.99542 27.355409 27.355409 27.355409h150.162179c15.359989 0 27.282266-11.922277 27.282266-27.355409v-82.797655c0-11.99542 7.679995-22.235413 18.797701-25.599982a446.902538 446.902538 0 0 0 58.879958-23.917697 27.355409 27.355409 0 0 1 31.597692 5.119996l59.684528 59.757672c10.239993 10.239993 28.15998 10.239993 38.399973 0l105.837639-105.910782a27.867409 27.867409 0 0 0 0-38.399972l-59.757672-59.830815a27.428552 27.428552 0 0 1-5.119996-31.597691c9.435422-18.797701 17.919987-38.399973 23.917697-58.879958a27.428552 27.428552 0 0 1 25.599982-18.797701h83.602226c17.115416-0.877714 29.037694-12.799991 29.037693-28.233123zM512.039863 768.000183A256.292388 256.292388 0 0 1 256.040046 512.000366c0-140.726757 114.395347-255.999817 255.999817-255.999817s255.999817 115.273061 255.999817 255.999817-115.273061 255.999817-255.999817 255.999817z m0-85.357653A170.861592 170.861592 0 0 1 341.397699 512.000366 170.861592 170.861592 0 0 1 512.039863 341.358202c94.354218 0 170.642164 76.799945 170.642164 170.642164A171.227306 171.227306 0 0 1 512.039863 682.64253z" p-id="14639"></path></svg>