<?xml version="1.0" standalone="no"?><!DOCTYPE svg PUBLIC "-//W3C//DTD SVG 1.1//EN" "http://www.w3.org/Graphics/SVG/1.1/DTD/svg11.dtd"><svg t="1546478527549" class="icon" style="" viewBox="0 0 1024 1024" version="1.1" xmlns="http://www.w3.org/2000/svg" p-id="4440" xmlns:xlink="http://www.w3.org/1999/xlink" width="64" height="64"><defs><style type="text/css"></style></defs><path d="M946.3 362.1l-292-287.8C636.4 56.6 606.9 60 593.2 81c-34.6 53.2-50.6 121.9-43.7 187.1 1.3 12-2.7 23.9-11.2 32.5l-85.4 85.3c-10.5 10.4-26 14.3-40 9.6-103.7-34.5-221.1-17.9-312.2 50.3-18.9 14.1-20.6 41.7-4.1 58.5L274 685 77.7 878c-19.3 19-19.4 49.9-0.4 69.1 19.1 19.2 50.2 19.3 69.5 0.4l195.8-192.6L512 927.4c16.5 16.8 44.3 15.7 59-2.8 72.6-91.4 91.1-211.6 55.1-317.6-4.7-13.9-0.9-29.3 9.6-39.7l85.2-85.1c8.4-8.4 20.2-12.4 32.1-11.3 65.2 5.8 134-12.2 187.3-48.2 20.7-14 23.7-43.1 6-60.6zM551.7 756.7l-2.7-0.2c-13.4-0.8-23.9-11.4-25.1-24.7-1.4-15.4-5.2-30.5-11.2-44.8-5.2-12.4-0.9-26.6 10.6-33.5l2.3-1.4c14-8.4 32.2-2.4 38.5 12.6 8.5 20.1 13.8 41.3 15.7 63 1.5 16.2-11.8 29.9-28.1 29z" p-id="4441"></path></svg>