<?xml version="1.0" standalone="no"?><!DOCTYPE svg PUBLIC "-//W3C//DTD SVG 1.1//EN" "http://www.w3.org/Graphics/SVG/1.1/DTD/svg11.dtd"><svg t="1544681280884" class="icon" style="" viewBox="0 0 1024 1024" version="1.1" xmlns="http://www.w3.org/2000/svg" p-id="7072" xmlns:xlink="http://www.w3.org/1999/xlink" width="200" height="200"><defs><style type="text/css"></style></defs><path d="M512 305.737143c-44.763429 0-81.188571 30.281143-81.188571 67.510857 0 37.229714 36.425143 67.510857 81.188571 67.510857 44.763429 0 81.188571-30.281143 81.188571-67.510857 0-37.229714-36.425143-67.510857-81.188571-67.510857z m339.894857-212.992C726.016 92.745143 607.305143 58.733714 512 0 416.694857 58.733714 297.984 92.745143 172.105143 92.745143A490.130286 490.130286 0 0 1 36.571429 72.630857v444.050286c0 41.179429 17.627429 91.794286 51.053714 146.285714 34.742857 56.685714 86.674286 117.686857 150.016 176.420572 56.32 52.150857 122.075429 102.619429 185.124571 142.116571 27.721143 17.408 50.907429 30.134857 68.973715 39.204571 8.923429 4.461714 20.187429 4.388571 28.964571-0.292571 18.358857-9.581714 41.764571-22.820571 69.778286-40.521143a1432.868571 1432.868571 0 0 0 189.732571-144.237714c65.682286-59.392 119.296-120.466286 155.062857-176.64 34.084571-53.613714 52.150857-102.838857 52.150857-142.336V72.630857a490.130286 490.130286 0 0 1-135.533714 20.114286zM563.273143 553.033143v193.755428c0 23.552-22.966857 42.642286-51.273143 42.642286-28.306286 0-51.273143-19.090286-51.273143-42.642286V553.033143c-97.792-19.309714-170.788571-92.598857-170.788571-179.785143 0-101.814857 99.620571-184.685714 222.061714-184.685714s222.061714 82.870857 222.061714 184.685714c0 87.186286-72.996571 160.475429-170.788571 179.785143z" p-id="7073"></path></svg>