<?xml version="1.0" standalone="no"?><!DOCTYPE svg PUBLIC "-//W3C//DTD SVG 1.1//EN" "http://www.w3.org/Graphics/SVG/1.1/DTD/svg11.dtd"><svg t="1546478702812" class="icon" style="" viewBox="0 0 1024 1024" version="1.1" xmlns="http://www.w3.org/2000/svg" p-id="10102" xmlns:xlink="http://www.w3.org/1999/xlink" width="64" height="64"><defs><style type="text/css"></style></defs><path d="M398.6688 96.41472H168.08448c-42.51136 0-77.29152 34.78016-77.29152 77.29152v230.58432c0 42.51136 34.78016 77.29152 77.29152 77.29152h230.58432c42.51136 0 77.29152-34.78016 77.29152-77.29152V173.70624c0-42.51136-34.78528-77.29152-77.29152-77.29152z m0 462.45888H168.08448c-42.51136 0-77.29152 33.49504-77.29152 76.0064v231.86944c0 42.51136 34.78016 77.29152 77.29152 77.29152h230.58432c42.51136 0 77.29152-34.78016 77.29152-77.29152v-230.58432c0-42.51136-34.78528-77.29152-77.29152-77.29152z m462.45376-462.45888h-230.58432c-42.51136 0-77.29152 34.78016-77.29152 77.29152v230.58432c0 42.51136 34.78016 77.29152 77.29152 77.29152h230.58432c42.51648 0 77.29664-34.78016 77.29664-77.29152V173.70624c0-42.51136-34.78016-77.29152-77.29664-77.29152z m0 462.45888h-230.58432c-42.51136 0-77.29152 33.49504-77.29152 76.0064v231.86944c0 42.51136 34.78016 77.29152 77.29152 77.29152h230.58432c42.51648 0 77.29664-34.78016 77.29664-77.29152v-230.58432c0-42.51136-34.78016-77.29152-77.29664-77.29152z" p-id="10103"></path></svg>