<?xml version="1.0" standalone="no"?><!DOCTYPE svg PUBLIC "-//W3C//DTD SVG 1.1//EN" "http://www.w3.org/Graphics/SVG/1.1/DTD/svg11.dtd"><svg t="1550819784487" class="icon" style="" viewBox="0 0 1024 1024" version="1.1" xmlns="http://www.w3.org/2000/svg" p-id="2257" xmlns:xlink="http://www.w3.org/1999/xlink" width="64" height="64"><defs><style type="text/css"></style></defs><path d="M849.188946 142.555123a505.41606 505.41606 0 0 1 166.107073 373.759199A506.147487 506.147487 0 0 1 507.685678 1023.997806 506.147487 506.147487 0 0 1 0.002194 516.387465a505.41606 505.41606 0 0 1 166.107073-373.759199c23.113093-13.897113 55.442167-18.578246 87.77124 4.534847 32.329074 27.647941 36.863921 64.585004 13.750828 87.698098-78.408975 69.192995-129.170009 166.107073-129.170009 281.453111a370.248349 370.248349 0 0 0 369.224352 369.224352 370.248349 370.248349 0 0 0 369.151209-369.224352c0-110.664906-50.761034-212.260117-129.170009-281.453111-9.289123-13.897113-18.505103-50.761034 13.82397-87.77124a63.195293 63.195293 0 0 1 87.698098-4.534848zM444.197814 69.266137A70.948419 70.948419 0 0 1 513.390808 0a70.948419 70.948419 0 0 1 69.266138 69.192995v276.991406a70.948419 70.948419 0 0 1-69.192995 69.119852 70.948419 70.948419 0 0 1-69.266137-69.119852V69.192995z" p-id="2258"></path></svg>