<?xml version="1.0" standalone="no"?><!DOCTYPE svg PUBLIC "-//W3C//DTD SVG 1.1//EN" "http://www.w3.org/Graphics/SVG/1.1/DTD/svg11.dtd"><svg t="1547688974406" class="icon" style="" viewBox="0 0 1024 1024" version="1.1" xmlns="http://www.w3.org/2000/svg" p-id="14115" xmlns:xlink="http://www.w3.org/1999/xlink" width="64" height="64"><defs><style type="text/css"></style></defs><path d="M874.666667 780.8c-6.4-6.4-64-78.933333-68.266667-145.066667-2.133333-40.533333-2.133333-110.933333-2.133333-160v-40.533333c0-85.333333-36.266667-168.533333-100.266667-226.133333-21.333333-19.2-44.8-34.133333-70.4-46.933334-2.133333 0-2.133333-2.133333-4.266667-2.133333-8.533333-4.266667-17.066667-6.4-25.6-10.666667-2.133333 0-6.4-2.133333-8.533333-4.266666C593.066667 100.266667 556.8 64 512 64c-44.8 0-81.066667 36.266667-83.2 81.066667-2.133333 0-6.4 2.133333-8.533333 4.266666-8.533333 2.133333-17.066667 6.4-25.6 10.666667-2.133333 0-2.133333 2.133333-4.266667 2.133333-25.6 12.8-49.066667 27.733333-70.4 46.933334-64 57.6-100.266667 138.666667-100.266667 226.133333v40.533333c0 51.2 0 119.466667-2.133333 160-4.266667 66.133333-61.866667 138.666667-68.266667 145.066667-12.8 10.666667-17.066667 27.733333-10.666666 42.666667 6.4 14.933333 19.2 25.6 36.266666 25.6h234.666667l2.133333 10.666666c8.533333 59.733333 59.733333 100.266667 119.466667 100.266667 57.6 0 108.8-42.666667 119.466667-100.266667l2.133333-10.666666h202.666667c14.933333 0 29.866667-10.666667 36.266666-25.6 0-17.066667-4.266667-34.133333-17.066666-42.666667zM569.6 853.333333c-6.4 17.066667-23.466667 29.866667-40.533333 29.866667-19.2 0-34.133333-12.8-40.533334-29.866667l-2.133333-4.266666h85.333333l-2.133333 4.266666z m-91.733333-83.2H256c23.466667-36.266667 34.133333-93.866667 38.4-130.133333 2.133333-42.666667 2.133333-115.2 2.133333-166.4v-38.4c0-55.466667 21.333333-108.8 57.6-151.466667l6.4-6.4c17.066667-17.066667 36.266667-32 55.466667-42.666666 23.466667-12.8 51.2-21.333333 76.8-23.466667h42.666667c27.733333 2.133333 53.333333 10.666667 76.8 23.466667 19.2 10.666667 38.4 25.6 55.466666 42.666666l6.4 6.4c36.266667 40.533333 57.6 93.866667 57.6 151.466667v38.4c0 51.2 0 123.733333 2.133334 166.4 2.133333 36.266667 14.933333 96 38.4 130.133333H477.866667z" fill="" p-id="14116"></path></svg>