<?xml version="1.0" standalone="no"?><!DOCTYPE svg PUBLIC "-//W3C//DTD SVG 1.1//EN" "http://www.w3.org/Graphics/SVG/1.1/DTD/svg11.dtd"><svg t="1545360558825" class="icon" style="" viewBox="0 0 1024 1024" version="1.1" xmlns="http://www.w3.org/2000/svg" p-id="1511" xmlns:xlink="http://www.w3.org/1999/xlink" width="64" height="64"><defs><style type="text/css"></style></defs><path d="M514.88 1007.68c-41.92-34.88-238.08-198.4-308.48-271.68a427.52 427.52 0 1 1 616.32 0c-70.4 73.6-265.92 236.8-307.84 271.68z" fill="#909399" p-id="1512"></path><path d="M512 24.96a416 416 0 0 1 298.88 704C744.64 796.48 566.4 946.24 512 992c-54.4-45.44-233.28-195.2-299.52-264A416 416 0 0 1 512 24.96M512 0a440 440 0 0 0-317.44 744.64C274.56 828.16 512 1024 512 1024s236.8-195.52 316.8-278.4A440 440 0 0 0 512 0z" fill="#FFFFFF" p-id="1513"></path><path d="M512 110.08a332.8 332.8 0 1 0 332.8 332.8A332.8 332.8 0 0 0 512 110.08z" fill="#FFFFFF" p-id="1514"></path><path d="M482.56 617.28H264c-2.88 0-6.4 0-7.68-1.6s1.92-5.12 2.88-7.36c9.28-18.24 19.52-35.84 29.44-53.76l29.12-51.2c27.84-49.28 55.68-99.2 83.52-148.48l52.48-93.12c3.84-6.72 6.4-4.48 8.96 0a28.48 28.48 0 0 1 3.52 26.24c-2.24 5.44 2.24 10.24 0 16.32a72.32 72.32 0 0 0-4.8 24.32 99.2 99.2 0 0 0 18.56 53.12 24.96 24.96 0 0 1 5.76 16.32 29.44 29.44 0 0 0 11.52 25.92 14.08 14.08 0 0 1 4.48 12.16 105.92 105.92 0 0 1 0 16 105.6 105.6 0 0 0 0 23.36 398.4 398.4 0 0 0 10.24 48.32 198.4 198.4 0 0 1 5.44 51.2c0 7.04 1.6 9.28 8.96 8.96h156.8a9.6 9.6 0 0 1 9.92 5.12c4.48 7.36 9.28 14.08 13.44 21.44 0 2.24 5.44 6.72-2.88 6.4z" fill="#909399" p-id="1515"></path><path d="M564.16 394.88c0 8.64-19.2 19.52-23.36 22.08a8.96 8.96 0 0 1-12.16 0 125.12 125.12 0 0 1-19.84-32 8.32 8.32 0 0 1 3.2-11.2c4.8-2.56 22.72-13.76 28.16-9.28a91.2 91.2 0 0 1 24 30.4zM637.12 517.76v13.44c0 4.48-3.84 7.68-8.64 5.44s-28.16-6.08-28.8-16 3.52-25.6 11.2-29.44c1.92 0 14.4-2.24 16-3.52s9.28 8.96 9.6 11.52 0 12.16 0 18.56zM521.92 333.12c0 4.48-14.72 8.32-18.56 10.24s-6.4 0-9.28-3.52-9.92-9.92-14.4-15.04-5.44-8.96 0-13.76 27.2-14.4 32-8.64 9.92 16.32 14.72 21.12-4.8 5.76-4.48 9.6zM592 443.52a136 136 0 0 1-40 44.8c-6.72 0-2.56-29.12-2.24-36.48s9.28-32 16.32-32 26.24 16 25.92 23.68zM749.12 330.56h-19.52l-5.76-17.6-21.76 11.84 16.64 22.72h32v27.84l18.88 6.4V302.08l-18.88 3.52v24.96z m-119.36 3.84H640l121.92-74.24v-10.88l-22.08-34.56h-16l-138.56 91.2z m16.96 8a81.6 81.6 0 0 0-11.52 6.72l-16.64-11.84 5.76 17.28 5.76 6.08H640l122.24-75.84-10.88-11.84z" fill="#909399" p-id="1516"></path></svg>