<?xml version="1.0" standalone="no"?><!DOCTYPE svg PUBLIC "-//W3C//DTD SVG 1.1//EN" "http://www.w3.org/Graphics/SVG/1.1/DTD/svg11.dtd"><svg t="1545620521595" class="icon" style="" viewBox="0 0 1024 1024" version="1.1" xmlns="http://www.w3.org/2000/svg" p-id="8005" xmlns:xlink="http://www.w3.org/1999/xlink" width="64" height="64"><defs><style type="text/css"></style></defs><path d="M510.507719 1006.7097C510.507719 1006.7097 903.529407 597.276243 903.529407 385.952956 903.529407 173.166078 727.190531 0 510.507719 0 295.314037 0 120.470593 173.166078 120.470593 385.952956 120.470593 528.302032 298.304906 760.167511 411.874655 895.178856L510.507719 1006.7097 510.507719 1006.7097ZM510.507719 255.34227C582.235581 255.34227 640.518414 314.045382 640.518414 385.951715 640.518414 453.458625 582.234322 512.160503 510.507719 512.160503 440.270246 512.160503 379.000328 453.457391 379.000328 385.951715 379.000328 314.045382 440.270246 255.34227 510.507719 255.34227L510.507719 255.34227 510.507719 255.34227Z" fill="#409eff" p-id="8006"></path></svg>